<svg xmlns="http://www.w3.org/2000/svg" xmlns:xlink="http://www.w3.org/1999/xlink" width="375" height="157" version="1.1" viewBox="0 0 375 157"><title>Group 10</title><desc>Created with Sketch.</desc><defs><linearGradient id="linearGradient-1" x1="27.944%" x2="57.485%" y1="44.797%" y2="54.177%"><stop offset="0%" stop-color="#AEFF98"/><stop offset="100%" stop-color="#FFBC4C"/></linearGradient><rect id="path-2" width="375" height="157" x="0" y="0"/><linearGradient id="linearGradient-4" x1="36.509%" x2="58.381%" y1="42.372%" y2="65.031%"><stop offset="0%" stop-color="#FFDFA9"/><stop offset="100%" stop-color="#FF54EC"/></linearGradient><path id="path-5" d="M97.1325323,167.259566 C191.59164,121.188479 313.682312,105.83145 463.404548,121.188479 C613.126784,136.545508 703.586255,96.1493483 734.782962,0 L802.673873,0 L802.673873,205.654423 L783.05835,285.507775 C666.830265,345.76578 567.594746,370.567114 485.351795,359.911776 C361.987368,343.928769 241.318333,323.2104 77.3264126,407.854542 C-32.0015344,464.28397 -25.3994945,384.085644 97.1325323,167.259566 Z"/><linearGradient id="linearGradient-7" x1="47.29%" x2="50%" y1="37.255%" y2="65.237%"><stop offset="0%" stop-color="#FF91CE"/><stop offset="100%" stop-color="#9650FF"/></linearGradient><linearGradient id="linearGradient-8" x1="35.534%" x2="50%" y1="41.87%" y2="85.026%"><stop offset="0%" stop-color="#F1FF73"/><stop offset="100%" stop-color="#FFA358"/></linearGradient><linearGradient id="linearGradient-9" x1="62.3%" x2="24.775%" y1="50%" y2="50%"><stop offset="0%" stop-color="#FCBB5F"/><stop offset="100%" stop-color="#FF9EC9"/></linearGradient><linearGradient id="linearGradient-10" x1="62.3%" x2="24.775%" y1="50%" y2="50%"><stop offset="0%" stop-color="#FCA45F"/><stop offset="100%" stop-color="#C76EE8"/></linearGradient></defs><g id="Stellar-Dashboard" fill="none" fill-rule="evenodd" stroke="none" stroke-width="1"><g id="Group-10"><g id="5-copy"><g id="Path"><mask id="mask-3" fill="#fff"><use xlink:href="#path-2"/></mask><use id="Mask" fill="url(#linearGradient-1)" fill-rule="nonzero" xlink:href="#path-2"/><g id="Group-3" mask="url(#mask-3)"><g transform="translate(-408.000000, -124.000000)"><g id="Path-5" fill="none" stroke-width="1"><mask id="mask-6" fill="#fff"><use xlink:href="#path-5"/></mask><use id="Mask" fill="url(#linearGradient-4)" xlink:href="#path-5"/><path fill="url(#linearGradient-7)" d="M726.502547,137.065381 C667.505027,150.97902 645.275501,171.901983 659.813968,199.834269 C674.352435,227.766556 642.307507,250.123715 563.679185,266.905747 C436.149271,299.545014 486.896985,325.343968 715.922327,344.302609 C944.947669,363.261251 968.615552,288.36387 786.925976,119.610465 L726.502547,137.065381 Z" mask="url(#mask-6)"/><path id="Path-6" fill="url(#linearGradient-8)" d="M430,85.9635925 C456.23618,158.773237 486.765301,184.825041 521.587364,164.119004 C556.409426,143.412967 598.337524,143.412967 647.371658,164.119004 C725.936361,202.126589 719.195447,158.281355 627.148916,32.5833015 C535.102385,-93.1147518 469.386079,-75.3213215 430,85.9635925 Z" mask="url(#mask-6)"/><path id="Path-7" fill="#FFF" d="M57.2359465,374.795247 C176.576207,327.402671 288.150661,327.402671 391.95931,374.795247 C495.767959,422.187822 615.491597,387.99642 751.130224,272.221038 C875.285171,154.404315 989.860879,161.866982 1094.85735,294.609039 C1199.85382,427.351097 972.67754,508.480432 413.328518,537.997044 L23.1137157,470.024631 L57.2359465,374.795247 Z" mask="url(#mask-6)" opacity=".45"/><path id="Path-7-Copy" fill="#FFF" d="M79.6010318,337.574251 C198.942758,290.177577 310.51708,290.173797 414.324,337.562912 C518.130919,384.952028 637.855574,350.756529 773.497966,234.976416 C897.656761,117.155347 1012.23208,124.614142 1117.22392,257.3528 C1222.21577,390.091457 995.03701,471.228584 435.687648,500.764179 L45.4756124,432.804903 L79.6010318,337.574251 Z" mask="url(#mask-6)" opacity=".2" transform="translate(593.794376, 326.317917) rotate(2.000000) translate(-593.794376, -326.317917)"/></g><ellipse id="Oval-9-Copy" cx="451.546" cy="233.381" fill="url(#linearGradient-9)" rx="12.422" ry="11.174" transform="translate(451.545574, 233.381208) rotate(-30.000000) translate(-451.545574, -233.381208)"/><ellipse id="Oval-9-Copy-2" cx="585.886" cy="234.269" fill="url(#linearGradient-10)" rx="6.12" ry="5.509" transform="translate(585.885938, 234.269120) rotate(-128.000000) translate(-585.885938, -234.269120)"/></g></g></g></g></g></g></svg>